<?xml version="1.0" encoding="UTF-8"?>
<svg version="1.1" xmlns="http://www.w3.org/2000/svg" width="746" height="183">
<path d="M0 0 C246.18 0 492.36 0 746 0 C746 60.39 746 120.78 746 183 C499.82 183 253.64 183 0 183 C0 122.61 0 62.22 0 0 Z " fill="#1F1F1F" transform="translate(0,0)"/>
<path d="M0 0 C10.34549048 7.62857825 15.14019028 17.20488309 20.25 28.625 C20.91783834 30.08398989 21.58710086 31.54232875 22.2578125 33 C24.73874882 38.41504701 27.20970009 43.82369419 29.375 49.375 C29.38958252 48.65957031 29.40416504 47.94414063 29.41918945 47.20703125 C29.49419213 43.92917564 29.59067955 40.65228083 29.6875 37.375 C29.71005859 36.24964844 29.73261719 35.12429687 29.75585938 33.96484375 C30.1736411 20.97563013 34.69580073 11.25518234 44.05078125 2.203125 C53.19941703 -4.99277676 63.52763265 -6.61749313 74.8125 -5.3515625 C83.08974738 -3.78479782 91.16413233 -0.26278161 96.375 6.546875 C98.08657698 9.67585168 98.01376886 11.92564813 97.375 15.375 C95.31281788 19.32751573 93.94748903 20.19063913 89.6875 21.5625 C84.92326544 21.92829329 82.02460688 19.61275391 78.35546875 16.8203125 C73.87395276 13.54977815 68.6881555 13.80826341 63.375 14.375 C58.07394898 16.03665824 54.35602852 18.60535437 51.375 23.375 C50.06154692 27.15076611 50.20502339 31.04135384 50.1640625 34.9921875 C50.13599431 36.50131294 50.10732985 38.01042738 50.078125 39.51953125 C50.03691092 41.88492526 49.99999873 44.25011388 49.97363281 46.61572266 C49.94590193 48.90830165 49.90003849 51.19996548 49.8515625 53.4921875 C49.84830963 54.19238007 49.84505676 54.89257263 49.84170532 55.61398315 C49.72692416 60.23767551 48.77789962 63.43008505 46.375 67.375 C43.03143679 70.00208538 39.48927217 69.74234573 35.375 69.375 C32.9375 67.875 32.9375 67.875 31.375 66.375 C30.983125 66.849375 30.59125 67.32375 30.1875 67.8125 C27.81505261 69.85771327 26.51248952 70.23238684 23.375 70.375 C19.10901777 69.3846827 17.24769553 68.69607293 14.81640625 65.015625 C11.375 58.26929887 11.375 58.26929887 11.375 55.375 C10.69695312 55.96667969 10.01890625 56.55835938 9.3203125 57.16796875 C-1.41372613 66.28149462 -10.0486549 70.77233513 -24.19921875 70.66015625 C-35.66099777 69.70609711 -44.32218257 63.6210063 -51.6015625 55.046875 C-58.60902722 45.79377486 -60.00538902 35.59767498 -58.625 24.375 C-55.54589246 12.54688644 -48.02124883 4.49547996 -38.1875 -2.3125 C-26.17601677 -8.46472312 -11.33121471 -6.94929693 0 0 Z " fill="#B4AFAD" transform="translate(511.625,61.625)"/>
<path d="M0 0 C9.00254673 7.24595225 15.02890381 15.48019733 16.5625 27.0625 C17.52902752 37.69430274 15.89876123 46.15990867 9.5078125 54.859375 C5.12439197 59.98600524 0.62365191 64.07443714 -5.4375 67.0625 C-6.04980469 67.37960938 -6.66210938 67.69671875 -7.29296875 68.0234375 C-15.69467491 71.7998745 -26.86748013 71.11374547 -35.4375 68.0625 C-40.43710712 65.38461017 -45.73332254 62.45127792 -49.4375 58.0625 C-49.4375 57.4025 -49.4375 56.7425 -49.4375 56.0625 C-50.0975 56.0625 -50.7575 56.0625 -51.4375 56.0625 C-57.50297153 44.44654981 -62.18021239 33.68527646 -58.375 20.4375 C-54.56193173 10.60192203 -47.39324995 2.5873316 -38.375 -2.75 C-25.20119832 -8.0755794 -12.43286351 -7.00761398 0 0 Z " fill="#E6DFDD" transform="translate(260.4375,61.9375)"/>
<path d="M0 0 C1.2684375 0.99 1.2684375 0.99 2.5625 2 C3.36429687 2.59167969 4.16609375 3.18335937 4.9921875 3.79296875 C7.69375837 6.11270665 9.35825104 8.30695727 11.25 11.3125 C11.83136719 12.21613281 12.41273438 13.11976562 13.01171875 14.05078125 C16.34730411 20.39427482 16.88773164 26.2183021 16.93359375 33.2578125 C16.94262222 34.1238913 16.9516507 34.98997009 16.96095276 35.8822937 C16.97538646 37.70258154 16.98432476 39.52292044 16.98803711 41.34326172 C16.99999678 44.12425224 17.04929974 46.90306627 17.09960938 49.68359375 C17.10906806 51.45832258 17.11630574 53.23306493 17.12109375 55.0078125 C17.14062607 55.83499786 17.16015839 56.66218323 17.18028259 57.51443481 C17.14627757 61.86657023 16.96452274 63.49529931 14.15649414 67.02050781 C11.64833859 68.93449607 10.64775446 69.68720271 7.5625 69.625 C6.6034375 69.64433594 6.6034375 69.64433594 5.625 69.6640625 C2.2901042 68.59032711 0.76413189 66.6818581 -1.4375 64 C-1.9109846 61.25582985 -2.0919116 59.12210586 -2.0390625 56.390625 C-2.04706879 55.66437927 -2.05507507 54.93813354 -2.06332397 54.18988037 C-2.08631556 51.8760147 -2.07698004 49.56391116 -2.0625 47.25 C-1.2796596 32.49219016 -1.2796596 32.49219016 -6.78320312 19.43481445 C-12.18885407 14.58405392 -17.60854984 13.47319649 -24.6484375 13.625 C-29.03468996 14.21474823 -32.33083008 15.85181556 -35.4375 19 C-39.02986353 24.33663497 -40.01223755 28.01479496 -39.94140625 34.3828125 C-39.95082748 35.16010712 -39.96024872 35.93740173 -39.96995544 36.73825073 C-39.99842616 39.20077396 -40.00168974 41.66232614 -40 44.125 C-40.00361556 46.59467187 -40.01320529 49.06364606 -40.04075623 51.53317261 C-40.05746171 53.06345836 -40.06048547 54.5939742 -40.04774475 56.1242981 C-40.10398381 61.82530108 -41.44637495 65.00887495 -45.4375 69 C-52.41971191 69.80123743 -52.41971191 69.80123743 -56.375 66.6875 C-59.63646623 62.43771067 -59.60925889 58.76420733 -59.640625 53.62109375 C-59.64632507 52.8943898 -59.65202515 52.16768585 -59.65789795 51.41896057 C-59.66734206 49.87819876 -59.6738796 48.3374168 -59.67773438 46.79663086 C-59.68736478 44.47016609 -59.71836037 42.14461404 -59.75 39.81835938 C-59.84688999 26.39269093 -57.82261633 14.79540057 -48.2578125 4.69921875 C-34.2586037 -8.19230855 -16.48975565 -9.59403965 0 0 Z " fill="#E6DFDD" transform="translate(347.4375,62)"/>
<path d="M0 0 C4.44816722 2.6491307 9.26825486 5.83338471 11.63671875 10.5703125 C12.12481017 14.88178675 12.13927673 16.86977713 9.57421875 20.4453125 C5.91528107 23.09220358 4.17116867 23.797035 -0.36328125 23.5703125 C-2.86698094 22.23083317 -5.07885491 20.72119244 -7.34765625 19.015625 C-11.87371899 15.77019242 -17.02055915 16.00042214 -22.36328125 16.5703125 C-27.69334253 18.24106425 -31.31563816 20.81598928 -34.36328125 25.5703125 C-36.29722409 31.37214103 -36.65293911 38.89234655 -33.92578125 44.5078125 C-30.02172478 49.17363608 -25.86578853 51.90445718 -19.8359375 53.05078125 C-13.37113165 53.41934491 -9.41137146 51.41758679 -4.36328125 47.5703125 C-1.18493645 45.45141597 0.83086964 45.02379454 4.62890625 45.12890625 C6.63671875 45.5703125 6.63671875 45.5703125 9.63671875 48.1328125 C11.9621521 52.12965108 12.46235248 54.02932697 11.63671875 58.5703125 C9.44921875 61.2578125 9.44921875 61.2578125 6.63671875 63.5703125 C5.83234375 64.2715625 5.02796875 64.9728125 4.19921875 65.6953125 C-5.19511738 72.56921699 -16.14181889 72.58161002 -27.36328125 71.5703125 C-30.76743462 70.70583671 -33.42467431 69.46554888 -36.36328125 67.5703125 C-37.37390625 67.0134375 -38.38453125 66.4565625 -39.42578125 65.8828125 C-47.67364708 59.38981174 -54.24147021 51.22163692 -55.62939453 40.51806641 C-56.31725415 31.97059633 -56.07338717 23.99527114 -51.36328125 16.5703125 C-50.78578125 15.5596875 -50.20828125 14.5490625 -49.61328125 13.5078125 C-37.60332817 -2.17184847 -18.41657432 -8.7937258 0 0 Z " fill="#E5DEDC" transform="translate(179.36328125,59.4296875)"/>
<path d="M0 0 C3.21252573 2.39211026 5.60052331 4.219647 6.9375 8.0625 C6.80156285 11.86874015 6.47641744 14.27485144 4.3125 17.4375 C0.94405395 19.74222624 -0.95137477 20.19729099 -5.0625 20.0625 C-7.53797591 18.72440491 -9.71384387 17.21511481 -11.94921875 15.5078125 C-16.88850724 12.12974089 -23.3027026 12.23398142 -29.0625 13.0625 C-34.94499699 15.79400772 -38.65444213 20.14269107 -41.0625 26.0625 C-42.0118757 31.54118894 -41.27007518 36.35953339 -38.515625 41.19921875 C-35.23812646 45.40181768 -31.02708287 48.3991682 -25.79296875 49.5703125 C-19.20891462 49.91623478 -12.99576277 47.47812816 -7.9375 43.3125 C-4.89359498 41.28322998 -2.61045112 41.56454195 0.9375 42.0625 C4.39317157 44.54156874 5.68892782 46.40378373 7.1875 50.375 C6.81354869 55.89078179 3.96255775 58.48987122 -0.0625 62.0625 C-8.13109184 67.80361343 -18.23172494 70.19622287 -28.0625 69.0625 C-40.53995966 66.61258783 -48.56756442 59.96725716 -55.6328125 49.63671875 C-59.1447424 43.31332585 -60.64769183 37.53945696 -60.625 30.3125 C-60.62330811 29.5297168 -60.62161621 28.74693359 -60.61987305 27.94042969 C-60.39509988 20.61838752 -58.16758631 15.13645265 -54.0625 9.0625 C-53.67964844 8.46308594 -53.29679687 7.86367187 -52.90234375 7.24609375 C-40.55158076 -9.70853789 -16.39630784 -11.44969741 0 0 Z " fill="#E5DFDD" transform="translate(436.0625,62.9375)"/>
<path d="M0 0 C0.66 0.66 1.32 1.32 2 2 C1.030625 2.45375 0.06125 2.9075 -0.9375 3.375 C-4.07079582 4.65786221 -4.07079582 4.65786221 -5 7 C-5.14396771 10.88712811 -5.03794298 14.2601102 -4 18 C-4.80824219 18.24234375 -5.61648438 18.4846875 -6.44921875 18.734375 C-16.24323405 21.68401939 -16.24323405 21.68401939 -22.8125 29.125 C-24.76764335 34.37242496 -24.97772615 39.93540675 -23.2734375 45.27734375 C-21.30048335 49.5841583 -19.05294716 52.40195695 -15 55 C-9.50243032 56.83252323 -3.42255311 56.90538036 1.9375 54.5625 C2.948125 54.046875 3.95875 53.53125 5 53 C5.99 52.67 6.98 52.34 8 52 C9.13545562 49.70465742 9.13545562 49.70465742 10 47 C10.350625 46.236875 10.70125 45.47375 11.0625 44.6875 C12.30479869 41.12624377 12.61852412 37.75117948 13 34 C16.52781055 37.52781055 18.16630512 42.32740402 20.25 46.8125 C20.7346875 47.81087891 21.219375 48.80925781 21.71875 49.83789062 C22.16734375 50.80533203 22.6159375 51.77277344 23.078125 52.76953125 C23.49481445 53.65229736 23.91150391 54.53506348 24.34082031 55.44458008 C25.1769835 58.68610602 24.55144753 60.08932791 23 63 C16.38935535 70.64760852 7.07101507 75.42794175 -2.9453125 76.23828125 C-14.62206488 76.51083444 -23.95714673 73.61122089 -32.625 65.5625 C-40.70687522 56.842582 -44.78925761 47.96062849 -44.59106445 35.94213867 C-43.96503763 24.41799367 -38.62218364 16.15492494 -30.39453125 8.5078125 C-21.10663705 0.43761137 -12.09598168 -1.06683107 0 0 Z " fill="#E6DFDD" transform="translate(497,56)"/>
<path d="M0 0 C4.60871876 2.4517521 8.27284963 5.16970166 10.8125 9.8125 C11.53273368 13.98985533 11.26585732 15.94356513 9.3125 19.6875 C6.63267691 21.96534963 4.56963024 22.8890827 1.0390625 23.16015625 C-2.67668564 22.57997803 -5.26356053 20.49797606 -8.20703125 18.2578125 C-12.68854724 14.98727815 -17.8743445 15.24576341 -23.1875 15.8125 C-28.48855102 17.47415824 -32.20647148 20.04285437 -35.1875 24.8125 C-36.50095308 28.58826611 -36.35747661 32.47885384 -36.3984375 36.4296875 C-36.42650569 37.93881294 -36.45517015 39.44792738 -36.484375 40.95703125 C-36.52558908 43.32242526 -36.56250127 45.68761388 -36.58886719 48.05322266 C-36.61659807 50.34580165 -36.66246151 52.63746548 -36.7109375 54.9296875 C-36.71419037 55.62988007 -36.71744324 56.33007263 -36.72079468 57.05148315 C-36.83557584 61.67517551 -37.78460038 64.86758505 -40.1875 68.8125 C-42.6541278 70.7505647 -44.48350643 70.85555548 -47.625 71.3125 C-51.59071528 70.75590838 -52.74345165 69.78830543 -55.15966797 66.67645264 C-57.05096222 63.24662871 -56.86013808 59.81150207 -56.78125 55.9765625 C-56.78129028 55.13837982 -56.78133057 54.30019714 -56.78137207 53.43661499 C-56.77603005 51.66990635 -56.7585037 49.90319725 -56.72949219 48.13671875 C-56.6877314 45.45237425 -56.6884213 42.77055147 -56.6953125 40.0859375 C-56.68481475 38.36196196 -56.67187349 36.63799921 -56.65625 34.9140625 C-56.65604858 34.12109772 -56.65584717 33.32813293 -56.65563965 32.51113892 C-56.41457694 20.98452718 -50.64961535 11.51500876 -42.51171875 3.640625 C-29.9929088 -6.20610283 -14.06816547 -6.3736547 0 0 Z " fill="#E4DEDC" transform="translate(598.1875,60.1875)"/>
<path d="M0 0 C0.96679688 -0.01482422 1.93359375 -0.02964844 2.9296875 -0.04492188 C7.65266575 0.0103747 10.01216938 0.12693435 13.85546875 3.046875 C16.08949131 6.16068788 16.82839056 7.84636275 16.75 11.6875 C13.73701299 17.19399351 13.73701299 17.19399351 10.75 18.6875 C7.55284373 18.91848721 4.36286733 19.08235742 1.16015625 19.20507812 C-2.99774557 19.30111553 -2.99774557 19.30111553 -6.25 21.6875 C-7.00383823 24.19874453 -7.66402426 26.6762387 -8.2734375 29.22265625 C-8.65883216 30.77018777 -9.04424958 32.31771363 -9.4296875 33.86523438 C-10.02642838 36.29785686 -10.62040659 38.73113231 -11.21289062 41.16479492 C-16.98037625 64.74831369 -16.98037625 64.74831369 -24.25 71.6875 C-30.42292141 74.53863939 -35.68249451 75.20764916 -42.4375 75.1875 C-43.31341797 75.21585937 -44.18933594 75.24421875 -45.09179688 75.2734375 C-49.57820673 75.28704299 -51.62889044 75.1483996 -55.32421875 72.40625 C-57.93611624 68.71886531 -57.93611624 68.71886531 -57.875 65.6875 C-57.88789062 65.048125 -57.90078125 64.40875 -57.9140625 63.75 C-56.82480133 60.36688297 -55.02528452 58.85096881 -52.25 56.6875 C-48.93921533 56.11763949 -45.86145503 56.01609763 -42.51367188 55.97460938 C-38.43417319 56.02692718 -38.43417319 56.02692718 -35.25 53.6875 C-34.59531678 51.86492766 -34.59531678 51.86492766 -34.13671875 49.75 C-33.94335938 48.94602783 -33.75 48.14205566 -33.55078125 47.3137207 C-33.34839844 46.44706787 -33.14601563 45.58041504 -32.9375 44.6875 C-32.49503957 42.86811194 -32.05099447 41.04910862 -31.60546875 39.23046875 C-31.38036621 38.30669434 -31.15526367 37.38291992 -30.92333984 36.43115234 C-24.07024373 8.50689775 -24.07024373 8.50689775 -13.86230469 1.93994141 C-9.31201555 -0.24164582 -4.96371727 -0.14460694 0 0 Z " fill="#E6DFDD" transform="translate(658.25,56.3125)"/>
<path d="M0 0 C2.75329021 1.79562405 4.52627461 3.05254922 6 6 C6.10133654 7.88306956 6.13839401 9.76973581 6.14526367 11.65551758 C6.15164352 12.84047318 6.15802338 14.02542877 6.16459656 15.24629211 C6.16570938 16.53271103 6.1668222 17.81912994 6.16796875 19.14453125 C6.17129715 20.46160568 6.17462555 21.77868011 6.17805481 23.13566589 C6.18404788 25.9274477 6.18589461 28.71919854 6.18530273 31.51098633 C6.18520129 35.08203375 6.19883389 38.65288154 6.21607494 42.22388172 C6.22989673 45.63493452 6.22928459 49.04595081 6.23046875 52.45703125 C6.23765427 53.73737747 6.24483978 55.01772369 6.25224304 56.33686829 C6.24916641 57.53128036 6.24608978 58.72569244 6.24291992 59.95629883 C6.24434494 61.00505692 6.24576996 62.053815 6.24723816 63.13435364 C5.98640612 66.15756166 5.36112325 68.29629993 4 71 C1.30335673 73.17229597 -0.58480501 73.93080083 -4 74.5 C-8.04765236 73.82539127 -9.45025362 72.13254555 -12 69 C-13.04410274 65.86769179 -13.14536989 63.62698191 -13.17700195 60.33862305 C-13.18983719 59.17699142 -13.20267242 58.0153598 -13.21589661 56.81852722 C-13.22328354 55.56228043 -13.23067047 54.30603363 -13.23828125 53.01171875 C-13.246353 51.72062698 -13.25442474 50.42953522 -13.26274109 49.09931946 C-13.27775386 46.3647983 -13.28759857 43.63030298 -13.29516602 40.89575195 C-13.30622291 37.40197547 -13.34061972 33.9088372 -13.38033772 30.41528606 C-13.41285029 27.07245631 -13.41728634 23.72969438 -13.42578125 20.38671875 C-13.44328934 19.13654465 -13.46079742 17.88637054 -13.47883606 16.59831238 C-13.45166534 5.72202826 -13.45166534 5.72202826 -9 1 C-5.89951072 -0.55024464 -3.42105782 -0.28992015 0 0 Z " fill="#E5DEDC" transform="translate(106,57)"/>
<path d="M0 0 C5.72327537 2.58504817 9.19433525 6.49201551 11.6640625 12.26171875 C12.67041321 20.0642041 11.09370322 25.4437119 6.9140625 32.01171875 C2.95112041 35.97466084 -1.31899603 37.42055239 -6.8359375 37.63671875 C-12.19675254 37.40047944 -16.32471732 36.19249013 -20.2890625 32.38671875 C-25.19226846 26.96528777 -26.72945484 23.21246138 -26.6015625 15.890625 C-26.07144894 10.64405989 -24.22555005 7.09644629 -20.453125 3.43359375 C-14.10573878 -1.43501073 -7.64387886 -2.41587476 0 0 Z " fill="#202020" transform="translate(246.3359375,75.73828125)"/>
<path d="M0 0 C4.89050469 3.64390545 9.40740387 8.15426937 10.55859375 14.3828125 C10.76437214 20.94351166 8.90700781 25.97540119 5.1875 31.375 C-0.32740061 35.98950867 -5.27744125 36.73872308 -12.27734375 36.65625 C-17.39029046 36.08902016 -20.59906661 33.65402438 -24.125 29.9375 C-27.89530074 24.21222851 -28.64848794 19.15579105 -27.8125 12.375 C-25.79876433 6.00724127 -22.40176003 2.42600573 -16.625 -0.875 C-11.06189669 -2.35849422 -5.21533037 -2.73890435 0 0 Z " fill="#202020" transform="translate(499.8125,76.625)"/>
<path d="M0 0 C8.7037086 10.96807511 15.11252165 26.25371181 15.4609375 40.26953125 C14.95148046 43.28741661 14.44907245 44.23122545 12 46 C8.7148441 47.27756063 6.96264155 46.9913275 3.5 46.1875 C-1.42286344 43.90380842 -3.19743581 38.84283375 -5 34 C-5 33.34 -5 32.68 -5 32 C-5.66 31.67 -6.32 31.34 -7 31 C-6.401875 30.195625 -5.80375 29.39125 -5.1875 28.5625 C0.70384533 19.48437713 0.34597503 10.44332043 0 0 Z " fill="#807D7C" transform="translate(528,85)"/>
</svg>
